<?xml version="1.0" encoding="UTF-8" standalone="no"?>
<svg
   version="1.1"
   viewBox="0 0 512 512"
   id="svg84"
   sodipodi:docname="logo.svg"
   inkscape:version="1.2.2 (b0a8486541, 2022-12-01)"
   xmlns:inkscape="http://www.inkscape.org/namespaces/inkscape"
   xmlns:sodipodi="http://sodipodi.sourceforge.net/DTD/sodipodi-0.dtd"
   xmlns="http://www.w3.org/2000/svg"
   xmlns:svg="http://www.w3.org/2000/svg">
  <defs
     id="defs88" />
  <sodipodi:namedview
     id="namedview86"
     pagecolor="#ffffff"
     bordercolor="#000000"
     borderopacity="0.25"
     inkscape:showpageshadow="2"
     inkscape:pageopacity="0.0"
     inkscape:pagecheckerboard="0"
     inkscape:deskcolor="#d1d1d1"
     showgrid="false"
     inkscape:zoom="1"
     inkscape:cx="195"
     inkscape:cy="292.5"
     inkscape:window-width="1920"
     inkscape:window-height="1052"
     inkscape:window-x="1920"
     inkscape:window-y="0"
     inkscape:window-maximized="1"
     inkscape:current-layer="svg84" />
  <rect
     style="fill:#4e9ed7;fill-opacity:1"
     id="rect732"
     width="512.01172"
     height="512.00488"
     x="0.0099887848"
     y="0.0051472187"
     ry="155.14206" />
  <path
     fill="#4e9ed7"
     fill-opacity="1"
     d="M 0.00525856,0.00177855 C 170.59797,0.02543652 344.73801,-0.00927931 512.00488,0.00378003 L 512.0432,511.99528 c -174.93946,0.006 -343.67166,0.0293 -512.08061068,0.0141 z"
     id="path64"
     sodipodi:nodetypes="ccccc"
     inkscape:label="background"
     style="display:none;stroke-width:1.00143" />
  <g
     id="g3701"
     inkscape:label="rabbit"
     transform="matrix(1.262011,0,0,1.3195187,-65.639839,-130.83784)">
    <path
       fill="#0e4389"
       fill-opacity="1"
       d="m 225.81,227.39 c 22.58667,-2.02667 45.44,-1.87667 68.56,0.45 0.48515,0.0471 0.93586,-0.24922 1.08,-0.71 6.44,-19.88 15.92333,-38.37 28.45,-55.47 10.78667,-14.73333 22.58333,-28.60667 35.39,-41.62 3.09333,-3.14 6.45667,-5.95333 10.09,-8.44 2.76,-1.88667 5.72333,-3.03667 8.89,-3.45 3.27333,-0.42667 6.31,0.0133 9.11,1.32 3.8,1.76667 6.55667,4.80333 8.27,9.11 2.41333,6.06 3.62333,12.36667 3.63,18.92 0.02,9.06 -0.65667,18.81 -2.03,29.25 -1.22667,9.33333 -2.40333,16.79667 -3.53,22.39 -4.74667,23.62667 -10.19333,47.08667 -16.34,70.38 -0.0906,0.32997 -0.0729,0.66251 0.05,0.94 0.44,1.02667 1.4,2.60333 2.88,4.73 12.89333,18.48 22.35333,38.59 28.38,60.33 3.33333,12.02667 4.35333,24.02 3.06,35.98 -0.71333,6.62 -2.40667,13.31 -5.08,20.07 -9.19333,23.26 -24.18667,41.19 -44.98,53.79 -5.32667,3.23333 -11.30667,6.16 -17.94,8.78 -8.68,3.43333 -17.61667,6.11333 -26.81,8.04 -12.12,2.54667 -24.35333,4.25 -36.7,5.11 -31.10667,2.16667 -62.02333,0.67667 -92.75,-4.47 -3.58,-0.6 -7.1,-1.43 -10.56,-2.49 -4.96667,-1.52 -6.75667,-4.86 -5.37,-10.02 0.64667,-2.40667 2.93,-6.71667 6.85,-12.93 8.22,-13.03333 16.65,-25.93 25.29,-38.69 1.09333,-1.60667 1.88667,-3.16667 2.38,-4.68 0.7,-2.13333 -0.07,-3.22 -2.31,-3.26 -9.91333,-0.16667 -19.76667,0.41 -29.56,1.73 -8.94,1.2 -13.42667,1.80333 -13.46,1.81 -6.58,0.70667 -12.33,1.11 -17.25,1.21 -4.55333,0.0933 -9.35333,-0.23 -14.4,-0.97 -5.36667,-0.78667 -9.99,-2.03667 -13.87,-3.75 -11.43333,-5.04667 -19.76,-13.64 -24.98,-25.78 -2.3,-5.35333 -3.806667,-10.80667 -4.52,-16.36 -0.673333,-5.23333 -0.776667,-10.83333 -0.31,-16.8 0.553333,-6.98667 2.13,-13.79333 4.73,-20.42 4.433333,-11.28667 10.72667,-21.41333 18.88,-30.38 9.72667,-10.68667 21.08,-19.12 34.06,-25.3 0.55703,-0.26709 0.78283,-0.94449 0.5,-1.5 -10.17333,-19.89333 -18,-40.46 -23.48,-61.7 -3.36,-13.05333 -4.73667,-26.31667 -4.13,-39.79 0.24667,-5.36 1.26667,-10.49667 3.06,-15.41 2.02667,-5.56 4.70667,-9.94667 8.04,-13.16 5.34667,-5.14 11.70667,-6.70667 19.08,-4.7 3.82667,1.04 8.2,3.49 13.12,7.35 4.95333,3.88 9.09,7.70667 12.41,11.48 11.34,12.90667 22.21333,27.95 32.62,45.13 8.98667,14.83333 15.93333,29.34333 20.84,43.53 0.0959,0.27618 0.3692,0.4501 0.66,0.42 z M 330.71,178 c -11.06,15.51333 -19.54,32.33333 -25.44,50.46 -0.66,2.02667 -1.31667,3.66333 -1.97,4.91 -0.45307,0.86116 -1.38755,1.35425 -2.35,1.24 -25.35333,-3.08667 -49.82,-3.54667 -73.4,-1.38 -1.83333,0.16667 -3.70667,0.29333 -5.62,0.38 -1.87333,0.08 -3.74333,0.18 -5.61,0.3 -0.34014,0.0192 -0.64377,-0.13459 -0.77,-0.39 l -1.3,-2.56 c -3.02,-9.1 -6.54,-17.56667 -10.56,-25.4 -9.70667,-18.90667 -21.33667,-36.94333 -34.89,-54.11 -3.40667,-4.32 -7.01333,-8.46333 -10.82,-12.43 -3.88667,-4.06 -8.27333,-7.47667 -13.16,-10.25 -4.32,-2.44667 -8.22,-1.99667 -11.7,1.35 -1.48667,1.42667 -2.59,2.90667 -3.31,4.44 -3.56,7.59333 -5.31333,15.74 -5.26,24.44 0.04,5.78 0.46333,11.51667 1.27,17.21 0.68667,4.84 1.90667,10.44333 3.66,16.81 4.66667,16.94 10.8,33.34 18.4,49.2 0.8,1.67333 2.20333,4.25333 4.21,7.74 1.48,2.58 2.83333,5.18667 4.06,7.82 0.20424,0.44256 0.005,0.96442 -0.44,1.15 -19.48,8.1 -35.21667,20.53667 -47.21,37.31 -2.82,3.93333 -5.65667,8.82333 -8.51,14.67 -2.513333,5.14667 -4.87,10.29667 -7.07,15.45 -0.36,0.84 -0.11,1.11667 0.75,0.83 3.626667,-1.19333 7.32667,-1.61667 11.1,-1.27 0.58667,0.0533 1.02667,0.22667 1.32,0.52 0.48,0.48 0.54333,1.03 0.19,1.65 -0.13275,0.24795 -0.40921,0.44438 -0.76,0.54 -8.346667,2.43333 -12.186667,8.05667 -11.52,16.87 0.573333,7.59333 2.746667,14.63333 6.52,21.12 3.42667,5.89333 7.68,10.60667 12.76,14.14 5.50667,3.82667 11.66333,6.07333 18.47,6.74 10.10667,0.99333 21.11,0.51 33.01,-1.45 12.00667,-1.97333 24.08333,-3.13667 36.23,-3.49 6.36,-0.18667 11.51,0.39667 15.45,1.75 2.72667,0.94 4,2.77667 3.82,5.51 -0.0733,1.06 -0.45,2.25333 -1.13,3.58 -0.58,1.13333 -1.23,2.22667 -1.95,3.28 -8.62,12.54667 -17.2,25.12 -25.74,37.72 -3.80667,5.63333 -7.41,11.49 -10.81,17.57 -0.18506,0.33894 0.007,0.75857 0.38,0.83 36.54,7.56 73.44667,9.22667 110.72,5 14.75333,-1.68 28.49,-4.88333 41.21,-9.61 26.47333,-9.85333 46.09667,-27.56333 58.87,-53.13 7.24,-14.48 9.95667,-29.58333 8.15,-45.31 -1.1752,-7.8981 -2.43065,-13.06101 -6.21,-24.96 -5.98,-17.62 -14.66333,-33.74333 -26.05,-48.37 -1.04667,-1.34667 -1.60333,-2.54667 -1.67,-3.6 -0.08,-1.16667 0.0567,-2.54333 0.41,-4.13 0.75333,-3.42667 1.62,-6.82333 2.6,-10.19 2.36134,-9.82342 2.36525,-9.81496 2.67006,-10.95276 2.133,-12.39471 5.82044,-26.04365 8.31742,-36.94051 0.87349,-4.79995 2.12104,-9.08969 3.01252,-13.85673 2.24,-11.40667 3.82333,-22.90667 4.75,-34.5 0.74667,-9.21333 0.32333,-18.36667 -1.27,-27.46 -0.50667,-2.9 -1.89333,-5.28 -4.16,-7.14 -2.08667,-1.71333 -4.3,-1.86 -6.64,-0.44 -2.60667,1.58 -4.98667,3.45333 -7.14,5.62 -13.91333,13.98 -26.53667,29.03667 -37.87,45.17 z"
       id="path66"
       sodipodi:nodetypes="cccccccccccccccccccccsccscccccccccccccccccccccccccccccccccccccccccccccccccccccsccccccccccccccccccccccccccccccccc" />
    <path
       fill="#fbc8a0"
       fill-opacity="1"
       d="m 383.04,196.75 c -4.28667,20.66667 -8.95333,41.25 -14,61.75 -0.98,3.36667 -1.84667,6.76333 -2.6,10.19 -0.35333,1.58667 -0.49,2.96333 -0.41,4.13 0.0667,1.05333 0.62333,2.25333 1.67,3.6 11.38667,14.62667 20.07,30.75 26.05,48.37 2.87333,8.12 4.94333,16.44 6.21,24.96 1.80667,15.72667 -0.91,30.83 -8.15,45.31 -12.77333,25.56667 -32.39667,43.27667 -58.87,53.13 -12.72,4.72667 -26.45667,7.93 -41.21,9.61 -37.27333,4.22667 -74.18,2.56 -110.72,-5 -0.37293,-0.0714 -0.56506,-0.49106 -0.38,-0.83 3.4,-6.08 7.00333,-11.93667 10.81,-17.57 8.54,-12.6 17.12,-25.17333 25.74,-37.72 0.72,-1.05333 1.37,-2.14667 1.95,-3.28 0.68,-1.32667 1.05667,-2.52 1.13,-3.58 0.18,-2.73333 -1.09333,-4.57 -3.82,-5.51 -3.94,-1.35333 -9.09,-1.93667 -15.45,-1.75 -12.14667,0.35333 -24.22333,1.51667 -36.23,3.49 -11.9,1.96 -22.90333,2.44333 -33.01,1.45 -6.80667,-0.66667 -12.96333,-2.91333 -18.47,-6.74 -5.08,-3.53333 -9.33333,-8.24667 -12.76,-14.14 -3.773333,-6.48667 -5.946667,-13.52667 -6.52,-21.12 -0.666667,-8.81333 3.173333,-14.43667 11.52,-16.87 0.35079,-0.0956 0.62725,-0.29205 0.76,-0.54 0.35333,-0.62 0.29,-1.17 -0.19,-1.65 -0.29333,-0.29333 -0.73333,-0.46667 -1.32,-0.52 -3.77333,-0.34667 -7.473333,0.0767 -11.1,1.27 -0.86,0.28667 -1.11,0.01 -0.75,-0.83 2.2,-5.15333 4.556667,-10.30333 7.07,-15.45 2.85333,-5.84667 5.69,-10.73667 8.51,-14.67 11.99333,-16.77333 27.73,-29.21 47.21,-37.31 0.44457,-0.18558 0.64424,-0.70744 0.44,-1.15 -1.22667,-2.63333 -2.58,-5.24 -4.06,-7.82 -2.00667,-3.48667 -3.41,-6.06667 -4.21,-7.74 -7.6,-15.86 -13.73333,-32.26 -18.4,-49.2 -1.75333,-6.36667 -2.97333,-11.97 -3.66,-16.81 -0.80667,-5.69333 -1.23,-11.43 -1.27,-17.21 -0.0533,-8.7 1.7,-16.84667 5.26,-24.44 0.72,-1.53333 1.82333,-3.01333 3.31,-4.44 3.48,-3.34667 7.38,-3.79667 11.7,-1.35 4.88667,2.77333 9.27333,6.19 13.16,10.25 3.80667,3.96667 7.41333,8.11 10.82,12.43 13.55333,17.16667 25.11877,35.2727 34.82544,54.17936 4.23371,7.8506 7.97001,16.27176 10.78782,25.37176 0.94717,2.21689 0.39762,0.98516 1.26514,2.67793 0.28205,0.20149 0.24405,0.18557 0.58575,0.22362 6.83667,-0.64667 13.94521,-1.14651 21.35578,-1.53095 7.16339,-0.37161 15.16729,-0.55124 22.23639,-0.50862 4.72593,-0.26147 9.35106,0.20474 14.31787,0.45908 9.69906,0.35061 18.73336,0.85538 28.30669,2.00205 0.73812,-0.78403 0.24444,-0.16329 0.97222,-1.30033 1.89873,-4.39224 4.45335,-12.94456 6.62266,-17.69301 3.63896,-8.78409 4.63529,-10.48568 8.22956,-17.5062 3.35977,-7.13224 8.83862,-14.79981 12.40468,-19.82472 11.33333,-16.13333 23.95667,-31.19 37.87,-45.17 2.15333,-2.16667 4.53333,-4.04 7.14,-5.62 2.34,-1.42 4.55333,-1.27333 6.64,0.44 2.26667,1.86 3.65333,4.24 4.16,7.14 1.59333,9.09333 2.01667,18.24667 1.27,27.46 -0.92667,11.59333 -2.51,23.09333 -4.75,34.5 z M 143.69,153.01 c -2.27333,-2.34 -3.29,-1.59 -3.05,2.25 1.52667,24.75333 7.56333,48.24333 18.11,70.47 1.88,3.96 3.74333,7.34333 5.59,10.15 2.13333,3.23333 4.47667,6.32 7.03,9.26 1.43333,1.64667 2.79,2.78667 4.07,3.42 3.90667,1.94 6.68333,1.59 8.33,-1.05 0.88667,-1.43333 1.33667,-3.68667 1.35,-6.76 0.04,-7.94667 -1.56333,-16.3 -4.81,-25.06 -5.88,-15.90667 -12.29667,-29.49 -19.25,-40.75 -5.09333,-8.25333 -10.45333,-15.12333 -16.08,-20.61 -0.04,-0.04 -0.47,-0.48 -1.29,-1.32 z m 199.08,105.12 c 1.31333,-0.02 2.22333,-0.89667 2.73,-2.63 9.95333,-33.92 18.10667,-66.02333 24.46,-96.31 0.33333,-1.61333 0.49333,-3.22333 0.48,-4.83 -0.0133,-0.89333 -0.30333,-0.99667 -0.87,-0.31 -7.63333,9.24667 -14.62667,18.93667 -20.98,29.07 -4.62667,7.38 -7.95,13.15667 -9.97,17.33 -3.26,6.71333 -5.55,13.48 -6.87,20.3 -2.07333,10.73333 -0.47,21.21333 4.81,31.44 0.93333,1.80667 2.06,3.33 3.38,4.57 0.98,0.92667 1.92333,1.38333 2.83,1.37 z m -162.06,53.75 c 0.84667,0.22 1.74667,0.1 2.7,-0.36 2.04,-0.98 4.12333,-1.86333 6.25,-2.65 7.34667,-2.7 14.79667,-3.28333 22.35,-1.75 1.95333,0.39333 3.84333,1.03333 5.67,1.92 1.78667,0.87333 3.54,1.86667 5.26,2.98 0.68667,0.44 0.87667,0.28333 0.57,-0.47 -1.92,-4.74667 -4.94333,-8.17333 -9.07,-10.28 -3.52,-1.78667 -7.76,-2.45333 -12.72,-2 -8.43333,0.77333 -15.57333,4.54 -21.42,11.3 -0.38851,0.4542 -0.16813,1.15834 0.41,1.31 z"
       id="path68"
       sodipodi:nodetypes="cccccccccccccccccccccccccscccccccccccccccccccccscccccccccccccccccccccccccccccccccccccccccccccccc"
       style="fill:#ffffff;fill-opacity:1" />
    <path
       fill="#fb6d59"
       fill-opacity="1"
       d="m 144.98,154.33 q 8.44,8.23 16.08,20.61 10.43,16.89 19.25,40.75 4.87,13.14 4.81,25.06 -0.02,4.61 -1.35,6.76 -2.47,3.96 -8.33,1.05 -1.92,-0.95 -4.07,-3.42 -3.83,-4.41 -7.03,-9.26 -2.77,-4.21 -5.59,-10.15 -15.82,-33.34 -18.11,-70.47 -0.36,-5.76 3.05,-2.25 1.23,1.26 1.29,1.32 z"
       id="path70"
       style="fill:#fa2405;fill-opacity:1" />
    <path
       fill="#fb6d59"
       fill-opacity="1"
       d="m 339.94,256.76 q -1.98,-1.86 -3.38,-4.57 -7.92,-15.34 -4.81,-31.44 1.98,-10.23 6.87,-20.3 3.03,-6.26 9.97,-17.33 9.53,-15.2 20.98,-29.07 0.85,-1.03 0.87,0.31 0.02,2.41 -0.48,4.83 -9.53,45.43 -24.46,96.31 -0.76,2.6 -2.73,2.63 -1.36,0.02 -2.83,-1.37 z"
       id="path72"
       style="fill:#f92406;fill-opacity:1" />
    <path
       fill="#13437c"
       fill-opacity="1"
       d="m 180.71,311.88 a 0.81,0.81 -62.5 0 1 -0.41,-1.31 q 8.77,-10.14 21.42,-11.3 7.44,-0.68 12.72,2 6.19,3.16 9.07,10.28 0.46,1.13 -0.57,0.47 -2.58,-1.67 -5.26,-2.98 -2.74,-1.33 -5.67,-1.92 -11.33,-2.3 -22.35,1.75 -3.19,1.18 -6.25,2.65 -1.43,0.69 -2.7,0.36 z"
       id="path78" />
  </g>
</svg>
